<?xml version="1.0" encoding="UTF-8" standalone="no"?>
<!-- Created with Inkscape (http://www.inkscape.org/) -->

<svg
   width="210mm"
   height="297mm"
   viewBox="0 0 210 297"
   version="1.1"
   id="svg429"
   inkscape:version="1.2.2 (1:1.2.2+202212051552+b0a8486541)"
   sodipodi:docname="logo.svg"
   xmlns:inkscape="http://www.inkscape.org/namespaces/inkscape"
   xmlns:sodipodi="http://sodipodi.sourceforge.net/DTD/sodipodi-0.dtd"
   xmlns="http://www.w3.org/2000/svg"
   xmlns:svg="http://www.w3.org/2000/svg">
  <sodipodi:namedview
     id="namedview431"
     pagecolor="#ffffff"
     bordercolor="#666666"
     borderopacity="1.0"
     inkscape:showpageshadow="2"
     inkscape:pageopacity="0.0"
     inkscape:pagecheckerboard="0"
     inkscape:deskcolor="#d1d1d1"
     inkscape:document-units="mm"
     showgrid="false"
     inkscape:zoom="0.2102413"
     inkscape:cx="206.90511"
     inkscape:cy="561.25984"
     inkscape:window-width="960"
     inkscape:window-height="1171"
     inkscape:window-x="2040"
     inkscape:window-y="29"
     inkscape:window-maximized="1"
     inkscape:current-layer="layer1" />
  <defs
     id="defs426" />
  <g
     inkscape:label="Layer 1"
     inkscape:groupmode="layer"
     id="layer1">
    <g
       id="g584"
       inkscape:export-filename="g584.png"
       inkscape:export-xdpi="96"
       inkscape:export-ydpi="96"
       transform="matrix(0.23219859,0,0,0.23219859,31.145419,66.978314)">
      <g
         id="g178"
         transform="translate(105.74706,1.3000061)"
         style="stroke:#ffffff;stroke-width:3.77953;stroke-dasharray:none;stroke-opacity:1">
	<path
   d="m 376.9,104.4 c -2.4,-3.1 -5.6,-5.6 -9.6,-7.4 -3.9,-1.8 -7.8,-2.8 -11.4,-2.8 -1.9,0 -3.8,0.2 -5.8,0.5 -1.9,0.3 -3.7,1 -5.3,1.9 -1.6,0.9 -2.9,2.2 -3.9,3.7 -1.1,1.5 -1.6,3.4 -1.6,5.8 0,2 0.4,3.7 1.3,5 0.8,1.3 2.1,2.5 3.7,3.5 1.6,1 3.5,1.9 5.8,2.8 2.2,0.8 4.7,1.7 7.5,2.6 4,1.3 8.2,2.8 12.5,4.4 4.3,1.6 8.3,3.8 11.8,6.4 3.6,2.7 6.5,6 8.8,9.9 2.3,4 3.5,8.9 3.5,14.8 0,6.8 -1.3,12.7 -3.8,17.6 -2.5,5 -5.9,9 -10.1,12.3 -4.2,3.2 -9.1,5.6 -14.5,7.2 -5.5,1.6 -11.1,2.3 -16.9,2.3 -8.5,0 -16.6,-1.5 -24.5,-4.4 -7.9,-2.9 -14.5,-7.1 -19.7,-12.6 l 18.7,-19 c 2.9,3.6 6.7,6.5 11.4,8.9 4.7,2.4 9.4,3.6 14.1,3.6 2.1,0 4.2,-0.2 6.2,-0.7 2,-0.4 3.8,-1.2 5.3,-2.2 1.5,-1 2.7,-2.3 3.6,-4 0.9,-1.7 1.3,-3.7 1.3,-6 0,-2.2 -0.6,-4.1 -1.7,-5.7 -1.1,-1.6 -2.7,-3 -4.8,-4.3 -2.1,-1.3 -4.6,-2.4 -7.7,-3.5 -3.1,-1.1 -6.5,-2.2 -10.4,-3.4 -3.8,-1.2 -7.5,-2.7 -11.1,-4.3 -3.6,-1.7 -6.8,-3.8 -9.7,-6.4 -2.8,-2.6 -5.1,-5.8 -6.8,-9.5 -1.7,-3.7 -2.6,-8.3 -2.6,-13.6 0,-6.6 1.3,-12.2 4,-16.9 2.7,-4.7 6.2,-8.5 10.5,-11.5 4.3,-3 9.2,-5.2 14.7,-6.6 5.4,-1.4 11,-2.1 16.5,-2.1 6.7,0 13.5,1.2 20.4,3.7 7,2.4 13,6.1 18.3,10.8 z"
   id="path172"
   style="stroke:#ffffff;stroke-width:3.77953;stroke-dasharray:none;stroke-opacity:1" />

	<path
   d="m 461.5,98 v 93.8 H 433 V 98 H 399.6 V 73.7 h 95.3 V 98 Z"
   id="path174"
   style="stroke:#ffffff;stroke-width:3.77953;stroke-dasharray:none;stroke-opacity:1" />

	<path
   d="M 578.8,191.8 535,137.4 h -0.3 v 54.4 H 506.8 V 73.7 h 27.9 v 48.1 h 0.5 l 42.2,-48.1 h 35.7 l -50.9,54.4 53.9,63.7 z"
   id="path176"
   style="stroke:#ffffff;stroke-width:3.77953;stroke-dasharray:none;stroke-opacity:1" />

</g>
      <text
         xml:space="preserve"
         style="font-style:normal;font-variant:normal;font-weight:bold;font-stretch:normal;font-size:160px;line-height:1.25;font-family:'DejaVu Sans';-inkscape-font-specification:'DejaVu Sans Bold';letter-spacing:0px;stroke:#ffffff;stroke-width:3.77953;stroke-dasharray:none;stroke-opacity:1"
         x="195.09956"
         y="186.51675"
         id="text566"
         transform="scale(0.9705017,1.0303949)"><tspan
           sodipodi:role="line"
           id="tspan564"
           x="195.09956"
           y="186.51675"
           style="font-style:normal;font-variant:normal;font-weight:bold;font-stretch:normal;font-size:160px;font-family:'DejaVu Sans';-inkscape-font-specification:'DejaVu Sans Bold';stroke:#ffffff;stroke-width:3.77953;stroke-dasharray:none;stroke-opacity:1">Py</tspan></text>
      <g
         id="g414"
         transform="matrix(0.5,0,0,0.5,-97.571823,9.3357258)">
        <path
           class="st0"
           d="m 489.81,245.61 c -2.38,0 -4.3,1.92 -4.3,4.3 0,129.79 -105.59,235.38 -235.38,235.38 -129.79,0 -235.38,-105.59 -235.38,-235.38 0,-129.79 105.59,-235.38 235.38,-235.38 2.38,0 4.3,-1.92 4.3,-4.3 0,-2.38 -1.92,-4.3 -4.3,-4.3 C 115.6,5.94 6.15,115.38 6.15,249.91 c 0,134.53 109.45,243.99 243.98,243.99 134.53,0 243.98,-109.45 243.98,-243.98 0,-2.38 -1.93,-4.31 -4.3,-4.31 z"
           id="path363"
           style="fill:#fbb519" />
        <path
           class="st0"
           d="M 318.58,84.68 C 263.46,61.84 200.83,67.95 151.05,101 c -1.17,0.78 -1.89,2.08 -1.92,3.5 -0.03,1.18 0.44,2.31 1.26,3.13 0.16,0.16 0.33,0.31 0.51,0.44 21.1,15.35 43.13,29.3 65.87,41.85 -14.11,20.59 -27.05,44.55 -37.81,70.53 -10.78,26.02 -18.57,52.14 -23.15,76.71 -13.05,-3.77 -26.2,-7.2 -39.47,-10.11 -0.46,-26.7 4.6,-54.59 15.21,-81.59 l 22.87,9.47 c 1.52,0.63 3.26,0.34 4.49,-0.75 1.23,-1.09 1.74,-2.78 1.3,-4.37 l -21.98,-79.96 c -0.35,-1.28 -1.28,-2.33 -2.5,-2.83 -1.23,-0.51 -2.62,-0.42 -3.77,0.23 l -72.09,40.99 c -1.43,0.81 -2.27,2.37 -2.17,4.01 0.1,1.64 1.12,3.07 2.65,3.71 l 22.95,9.5 c -16.67,43.07 -16.13,90.09 1.6,132.9 9.14,22.07 22.31,41.7 38.7,58.09 16.35,16.35 35.92,29.49 57.92,38.63 0.06,0.03 0.12,0.05 0.18,0.07 55.12,22.83 117.75,16.73 167.52,-16.32 1.17,-0.78 1.89,-2.08 1.92,-3.5 0.03,-1.4 -0.62,-2.76 -1.77,-3.57 -21.1,-15.34 -43.14,-29.3 -65.87,-41.85 14.11,-20.6 27.05,-44.55 37.81,-70.53 10.78,-26.02 18.57,-52.14 23.15,-76.71 13.05,3.77 26.2,7.2 39.47,10.11 0.46,26.7 -4.6,54.59 -15.2,81.59 l -22.87,-9.47 c -1.52,-0.63 -3.26,-0.34 -4.49,0.75 -1.23,1.09 -1.74,2.78 -1.3,4.37 l 21.99,79.96 c 0.2,0.73 0.59,1.38 1.1,1.9 0.4,0.4 0.87,0.71 1.4,0.93 1.23,0.51 2.62,0.42 3.77,-0.24 l 72.09,-41 c 1.43,-0.81 2.27,-2.36 2.17,-4 -0.11,-1.64 -1.14,-3.08 -2.65,-3.71 l -22.95,-9.5 c 16.67,-43.07 16.14,-90.09 -1.6,-132.9 -18.3,-44.14 -52.68,-78.5 -96.81,-96.78 z m -3.66,187.42 -59.17,-24.51 27.36,-66.06 c 17.34,7.04 35.06,13.32 53.05,18.78 -4.2,22.94 -11.41,47.35 -21.24,71.79 z m -39.02,73.71 c -16.58,-8.86 -33.53,-16.96 -50.79,-24.25 l 27.35,-66.03 59.17,24.51 c -10.33,24.23 -22.49,46.58 -35.73,65.77 z m -65.62,69.57 c 13.48,-4.17 28.12,-13.71 43.17,-28.7 8.59,-8.55 16.97,-18.61 25.03,-29.69 20.89,11.49 41.18,24.17 60.7,38.05 -38.88,23.82 -85.21,30.88 -128.9,20.34 z m 11.51,-85.81 c 16.64,7.03 32.94,14.91 48.95,23.42 -7.55,10.28 -15.37,19.63 -23.37,27.6 -21.69,21.6 -42.55,31.38 -58.22,27.77 z m -62.11,14.69 c -0.02,-11.34 1.07,-23.53 3.01,-36.2 17.35,5.31 34.43,11.4 51.16,18.19 l -32.65,78.81 c -13.61,-8.52 -21.46,-30.19 -21.52,-60.8 z M 113.2,329.59 c 4.02,15.71 10.05,29.85 17.81,42.1 -16.29,-15.92 -29.23,-35.02 -38.18,-56.63 -17.4,-42.01 -17.4,-88.29 0,-130.31 0.44,-1.05 0.44,-2.24 0,-3.29 -0.44,-1.06 -1.27,-1.89 -2.33,-2.33 l -18.75,-7.76 59.64,-33.92 18.19,66.15 -18.75,-7.77 c -1.05,-0.44 -2.24,-0.44 -3.29,0 -1.05,0.44 -1.89,1.27 -2.33,2.33 -12.47,30.1 -18.22,61.45 -17.36,91.35 0,0.01 -0.01,0.01 -0.01,0.02 -0.14,0.66 -0.09,1.31 0.07,1.93 0.5,13.08 2.15,25.89 5.29,38.13 z m 41.16,-23.91 c -2.12,13.51 -3.31,26.51 -3.28,38.6 0.04,19.08 2.92,34.89 8.26,46.97 -17.77,-15.16 -30.91,-36.91 -37.81,-63.79 -2.6,-10.15 -4.17,-20.72 -4.87,-31.5 12.67,2.82 25.23,6.1 37.7,9.72 z m 30.98,-77.94 59.17,24.51 -27.36,66.06 c -17.34,-7.04 -35.06,-13.31 -53.06,-18.78 4.21,-22.95 11.42,-47.36 21.25,-71.79 z m 39.02,-73.72 c 16.59,8.86 33.54,16.96 50.8,24.25 L 247.8,244.3 188.63,219.79 c 10.33,-24.23 22.49,-46.57 35.73,-65.77 z m 65.62,-69.56 c -13.48,4.17 -28.12,13.71 -43.17,28.7 -8.59,8.55 -16.97,18.61 -25.03,29.69 -20.89,-11.49 -41.18,-24.17 -60.69,-38.05 38.87,-23.83 85.2,-30.89 128.89,-20.34 z m -11.51,85.81 c -16.64,-7.03 -32.95,-14.91 -48.95,-23.42 7.55,-10.28 15.37,-19.63 23.37,-27.6 21.69,-21.6 42.55,-31.38 58.22,-27.77 z M 324.3,98.75 c 10.4,10.4 16.23,30.33 16.28,56.82 0.02,11.34 -1.07,23.53 -3.01,36.2 -17.35,-5.31 -34.43,-11.4 -51.16,-18.19 l 32.68,-78.9 c 1.83,1.15 3.59,2.45 5.21,4.07 z m 54.42,73.63 c 2.6,10.16 4.17,20.72 4.87,31.5 -12.67,-2.83 -25.23,-6.1 -37.69,-9.72 2.13,-13.5 3.31,-26.51 3.28,-38.6 -0.04,-19.04 -2.88,-34.86 -8.21,-46.93 17.74,15.15 30.87,36.88 37.75,63.75 z m -9.48,-44.24 c 16.27,15.86 29.23,35.02 38.18,56.63 17.4,42.01 17.4,88.29 0,130.31 -0.44,1.05 -0.44,2.24 0,3.29 0.44,1.06 1.27,1.89 2.33,2.33 l 18.76,7.77 -59.64,33.92 -18.19,-66.15 18.75,7.77 c 1.05,0.44 2.24,0.44 3.29,0 1.05,-0.44 1.89,-1.27 2.33,-2.33 12.47,-30.1 18.22,-61.45 17.36,-91.35 0,-0.01 0.01,-0.01 0.01,-0.02 0.14,-0.66 0.09,-1.31 -0.07,-1.92 -0.51,-13.07 -2.16,-25.88 -5.3,-38.13 -4.02,-15.73 -10.04,-29.87 -17.81,-42.12 z"
           id="path365"
           style="fill:#fbb519" />
        <g
           id="g389">
	<circle
   class="st0"
   cx="276.60001"
   cy="12.55"
   r="4.6500001"
   id="circle367"
   style="fill:#fbb519" />

	<circle
   class="st0"
   cx="303.41"
   cy="17.32"
   r="4.6500001"
   id="circle369"
   style="fill:#fbb519" />

	<circle
   class="st0"
   cx="329.35999"
   cy="24.299999"
   r="4.6500001"
   id="circle371"
   style="fill:#fbb519" />

	<circle
   class="st0"
   cx="353.97"
   cy="34.709999"
   r="4.6500001"
   id="circle373"
   style="fill:#fbb519" />

	<circle
   class="st0"
   cx="419.09"
   cy="81.099998"
   r="4.6500001"
   id="circle375"
   style="fill:#fbb519" />

	<circle
   class="st0"
   cx="437.20999"
   cy="101.05"
   r="4.6500001"
   id="circle377"
   style="fill:#fbb519" />

	<circle
   class="st0"
   cx="453.23999"
   cy="123.09"
   r="4.6500001"
   id="circle379"
   style="fill:#fbb519" />

	<circle
   class="st0"
   cx="466.34"
   cy="146.59"
   r="4.6500001"
   id="circle381"
   style="fill:#fbb519" />

	<circle
   class="st0"
   cx="476.26001"
   cy="171.56"
   r="4.6500001"
   id="circle383"
   style="fill:#fbb519" />

	<circle
   class="st0"
   cx="483.85001"
   cy="197.14999"
   r="4.6500001"
   id="circle385"
   style="fill:#fbb519" />

	<circle
   class="st0"
   cx="488.01001"
   cy="223.22"
   r="4.6500001"
   id="circle387"
   style="fill:#fbb519" />

</g>
        <path
           class="st0"
           d="m 387.73,74.51 c 11.21,0 20.34,-9.13 20.34,-20.34 0,-11.21 -9.13,-20.34 -20.34,-20.34 -11.21,0 -20.34,9.13 -20.34,20.34 0,11.21 9.13,20.34 20.34,20.34 z m 0,-36.38 c 8.85,0 16.04,7.2 16.04,16.04 0,8.84 -7.2,16.04 -16.04,16.04 -8.84,0 -16.04,-7.2 -16.04,-16.04 0,-8.84 7.2,-16.04 16.04,-16.04 z m 0,48.7 c 18.01,0 32.65,-14.65 32.65,-32.66 0,-18.01 -14.65,-32.66 -32.65,-32.66 -18,0 -32.66,14.65 -32.66,32.66 0,18.01 14.65,32.66 32.66,32.66 z m 0,-61.01 c 15.63,0 28.35,12.72 28.35,28.36 0,15.64 -12.72,28.36 -28.35,28.36 -15.64,0 -28.36,-12.72 -28.36,-28.36 0,-15.64 12.72,-28.36 28.36,-28.36 z"
           id="path391"
           style="fill:#fbb519" />
      </g>
    </g>
  </g>
</svg>
